Gait_lateral_09_analogdata.mot
version=1
nRows=27
nColumns=19
inDegrees=yes
endheader
time	1_ground_force_vx	1_ground_force_vy	1_ground_force_vz	1_ground_force_px	1_ground_force_py	1_ground_force_pz	1_ground_torque_x	1_ground_torque_y	1_ground_torque_z	2_ground_force_vx	2_ground_force_vy	2_ground_force_vz	2_ground_force_px	2_ground_force_py	2_ground_force_pz	2_ground_torque_x	2_ground_torque_y	2_ground_torque_z
0.215000	-53.155170	611.847290	-102.833367	-0.136394	0.000000	-0.480542	0.047857	-0.550862	0.092584	0.000000	0.000000	-0.000000	-0.200000	0.000000	0.302000	0.000000	0.000000	-0.000000
0.216000	-52.531570	616.396240	-103.983467	-0.135553	0.000000	-0.479601	0.081847	-0.960373	0.162011	0.000000	0.000000	-0.000000	-0.200000	0.000000	0.302000	0.000000	0.000000	-0.000000
0.217000	-52.887912	617.446045	-103.983468	-0.134433	0.000000	-0.481548	0.068137	-0.795468	0.133964	0.000000	0.000000	-0.000000	-0.200000	0.000000	0.302000	0.000000	0.000000	-0.000000
0.218000	-52.976997	613.246948	-104.071938	-0.134922	0.000000	-0.484071	0.063249	-0.732154	0.124251	0.000000	0.000000	-0.000000	-0.200000	0.000000	0.302000	0.000000	0.000000	-0.000000
0.219000	-52.264312	614.646667	-103.275711	-0.135109	0.000000	-0.482125	0.037991	-0.446792	0.075072	0.000000	0.000000	-0.000000	-0.200000	0.000000	0.302000	0.000000	0.000000	-0.000000
0.220000	-50.928024	622.694885	-102.302551	-0.135255	0.000000	-0.480075	-0.013566	0.165869	-0.027251	0.000000	0.000000	-0.000000	-0.200000	0.000000	0.302000	0.000000	0.000000	-0.000000
0.221000	-50.749854	625.844177	-103.718056	-0.136227	0.000000	-0.479314	-0.012350	0.152304	-0.025241	0.000000	0.000000	-0.000000	-0.200000	0.000000	0.302000	0.000000	0.000000	-0.000000
0.222000	-51.373455	631.442932	-102.921837	-0.136347	0.000000	-0.476770	-0.006907	0.084898	-0.013838	0.000000	0.000000	-0.000000	-0.200000	0.000000	0.302000	0.000000	0.000000	-0.000000
0.223000	-51.017112	633.892395	-103.010307	-0.135899	0.000000	-0.476856	0.010654	-0.132371	0.021511	0.000000	0.000000	-0.000000	-0.200000	0.000000	0.302000	0.000000	0.000000	-0.000000
0.224000	-50.660766	637.391602	-102.921837	-0.135884	0.000000	-0.476401	0.003351	-0.042167	0.006809	0.000000	0.000000	-0.000000	-0.200000	0.000000	0.302000	0.000000	0.000000	-0.000000
0.225000	-50.126251	637.041687	-102.302551	-0.135410	0.000000	-0.477496	0.009727	-0.123617	0.019852	0.000000	0.000000	-0.000000	-0.200000	0.000000	0.302000	0.000000	0.000000	-0.000000
0.226000	-48.789966	638.091492	-102.833366	-0.135996	0.000000	-0.477222	-0.001687	0.022067	-0.003556	0.000000	0.000000	-0.000000	-0.200000	0.000000	0.302000	0.000000	0.000000	-0.000000
0.227000	-48.077278	638.091492	-101.240921	-0.134972	0.000000	-0.476571	0.000661	-0.008770	0.001391	0.000000	0.000000	-0.000000	-0.200000	0.000000	0.302000	0.000000	0.000000	-0.000000
0.228000	-46.206478	642.990356	-100.621635	-0.134977	0.000000	-0.476748	-0.060347	0.839758	-0.131414	0.000000	0.000000	-0.000000	-0.200000	0.000000	0.302000	0.000000	0.000000	-0.000000
0.229000	-44.959274	639.841064	-100.975509	-0.136421	0.000000	-0.477449	-0.044159	0.628459	-0.099179	0.000000	0.000000	-0.000000	-0.200000	0.000000	0.302000	0.000000	0.000000	-0.000000
0.230000	-45.226532	641.240784	-100.887038	-0.135486	0.000000	-0.476675	-0.025341	0.359299	-0.056529	0.000000	0.000000	-0.000000	-0.200000	0.000000	0.302000	0.000000	0.000000	-0.000000
0.231000	-43.177559	647.889282	-99.913878	-0.135515	0.000000	-0.474890	-0.043885	0.658511	-0.101552	0.000000	0.000000	-0.000000	-0.200000	0.000000	0.302000	0.000000	0.000000	-0.000000
0.232000	-42.643043	648.239197	-101.240920	-0.135837	0.000000	-0.475217	-0.041380	0.629041	-0.098243	0.000000	0.000000	-0.000000	-0.200000	0.000000	0.302000	0.000000	0.000000	-0.000000
0.233000	-44.335674	647.189453	-100.710105	-0.135457	0.000000	-0.475214	0.006931	-0.101180	0.015745	0.000000	0.000000	-0.000000	-0.200000	0.000000	0.302000	0.000000	0.000000	-0.000000
0.234000	-42.643044	647.889282	-99.913878	-0.134906	0.000000	-0.475261	-0.008801	0.133723	-0.020622	0.000000	0.000000	-0.000000	-0.200000	0.000000	0.302000	0.000000	0.000000	-0.000000
0.235000	-41.484928	648.589111	-100.002349	-0.135062	0.000000	-0.475460	-0.031188	0.487611	-0.075182	0.000000	0.000000	-0.000000	-0.200000	0.000000	0.302000	0.000000	0.000000	-0.000000
0.236000	-41.039501	646.489624	-99.383063	-0.135319	0.000000	-0.475527	-0.026874	0.423344	-0.065080	0.000000	0.000000	-0.000000	-0.200000	0.000000	0.302000	0.000000	0.000000	-0.000000
0.237000	-40.861328	648.939087	-97.879088	-0.135382	0.000000	-0.474634	-0.015093	0.239701	-0.036154	0.000000	0.000000	-0.000000	-0.200000	0.000000	0.302000	0.000000	0.000000	-0.000000
0.238000	-40.148644	650.338745	-98.498373	-0.134937	0.000000	-0.473727	0.009272	-0.150192	0.022748	0.000000	0.000000	-0.000000	-0.200000	0.000000	0.302000	0.000000	0.000000	-0.000000
0.239000	-40.326813	647.889282	-97.348273	-0.133378	0.000000	-0.475877	0.005186	-0.083324	0.012520	0.000000	0.000000	-0.000000	-0.200000	0.000000	0.302000	0.000000	0.000000	-0.000000
0.240000	-40.326813	644.390076	-97.171332	-0.134532	0.000000	-0.477694	0.000878	-0.014036	0.002117	0.000000	0.000000	-0.000000	-0.200000	0.000000	0.302000	0.000000	0.000000	-0.000000
0.241000	-39.346871	638.441406	-94.517256	-0.134290	0.000000	-0.477638	-0.007790	0.126400	-0.018713	0.000000	0.000000	-0.000000	-0.200000	0.000000	0.302000	0.000000	0.000000	-0.000000
